<?xml version="1.0" standalone="no"?>
<!DOCTYPE svg PUBLIC "-//W3C//DTD SVG 20010904//EN"
 "http://www.w3.org/TR/2001/REC-SVG-20010904/DTD/svg10.dtd">
<svg version="1.0" xmlns="http://www.w3.org/2000/svg"
 width="250.000000pt" height="250.000000pt" viewBox="0 0 250.000000 250.000000"
 preserveAspectRatio="xMidYMid meet">

<g transform="translate(0.000000,250.000000) scale(0.100000,-0.100000)"
fill="#000000" stroke="none">
<path d="M1683 2072 c-10 -16 -54 -108 -98 -205 -44 -97 -81 -174 -83 -172 -3
2 3 57 13 123 19 133 17 170 -6 185 -19 12 -505 -97 -528 -118 -10 -10 -18
-73 -27 -242 -8 -125 -15 -234 -16 -241 -2 -7 -65 89 -142 213 -164 266 -170
275 -201 275 -33 0 -50 -31 -65 -115 -20 -109 -24 -116 -40 -59 -16 61 -36 84
-69 84 -14 -1 -84 -31 -156 -68 -122 -63 -130 -69 -133 -99 -5 -46 78 -706 90
-720 14 -18 63 -16 78 2 10 12 8 49 -10 191 -12 97 -20 177 -18 179 8 7 161
45 165 41 3 -3 -7 -91 -22 -196 -30 -208 -28 -220 25 -220 15 0 32 6 38 13 5
6 22 102 38 212 l28 201 138 25 137 25 92 -150 c51 -83 99 -159 107 -168 17
-21 62 -24 80 -6 20 20 14 44 -28 111 l-40 64 6 125 7 124 189 23 c104 13 191
22 193 20 2 -2 -59 -140 -136 -307 -76 -166 -139 -313 -139 -327 0 -13 64
-124 148 -257 129 -203 152 -233 176 -236 32 -4 56 13 56 40 0 10 -62 117
-139 238 l-139 218 117 254 c64 139 121 264 127 277 10 23 10 23 66 -28 56
-51 84 -61 106 -39 28 28 14 62 -53 123 l-66 60 76 165 c43 91 86 185 96 209
l19 44 82 -107 c67 -88 86 -106 108 -106 31 0 50 17 49 45 0 11 -48 83 -107
160 -95 124 -111 140 -139 143 -27 3 -36 -2 -50 -26z m-263 -194 c0 -16 -32
-242 -35 -245 -2 -4 -294 -43 -317 -43 -18 0 -19 6 -12 108 3 59 8 108 9 110
3 3 327 81 343 81 6 1 12 -5 12 -11z m-731 -282 c34 -54 63 -103 64 -109 2
-10 -173 -49 -182 -41 -4 3 35 215 45 243 6 18 1 23 73 -93z m-259 -31 c18
-63 31 -117 29 -119 -5 -5 -185 -56 -197 -56 -5 0 -12 30 -16 68 -4 37 -9 84
-13 104 l-5 37 78 40 c44 22 82 40 85 41 3 0 20 -52 39 -115z"/>
<path d="M1850 1706 c-6 -8 -61 -218 -121 -467 -102 -424 -108 -453 -92 -471
22 -25 60 -23 76 4 8 13 29 85 47 161 17 76 33 137 35 135 2 -2 67 -160 145
-353 78 -192 148 -360 156 -372 18 -29 55 -30 79 -3 21 23 36 -19 -179 509
l-115 284 133 -7 134 -7 19 28 c41 59 163 293 163 313 0 12 -14 29 -37 44 -85
53 -394 216 -411 216 -11 0 -25 -7 -32 -14z m329 -253 c17 -10 30 -20 28 -23
-1 -3 -27 -51 -57 -108 l-54 -102 -131 6 c-71 4 -131 7 -132 8 -2 1 75 325 82
344 5 12 112 -39 264 -125z"/>
</g>
</svg>
