<?xml version="1.0" standalone="no"?>
<!DOCTYPE svg PUBLIC "-//W3C//DTD SVG 20010904//EN"
 "http://www.w3.org/TR/2001/REC-SVG-20010904/DTD/svg10.dtd">
<svg version="1.0" xmlns="http://www.w3.org/2000/svg"
 width="250.000000pt" height="250.000000pt" viewBox="0 0 250.000000 250.000000"
 preserveAspectRatio="xMidYMid meet">

<g transform="translate(0.000000,250.000000) scale(0.100000,-0.100000)"
fill="#000000" stroke="none">
<path d="M2282 2111 c-9 -15 -105 -188 -212 -384 -107 -196 -195 -355 -196
-354 -1 1 6 83 17 182 11 99 17 190 14 202 -9 38 -78 42 -89 5 -3 -9 -31 -259
-61 -555 -44 -420 -54 -542 -44 -553 14 -17 63 -18 77 -1 6 6 20 106 32 222
12 116 22 213 23 217 1 4 58 -153 126 -350 68 -196 130 -367 137 -379 18 -28
55 -30 79 -3 17 19 13 33 -130 445 -104 300 -144 429 -137 438 26 32 462 839
462 855 0 49 -70 59 -98 13z"/>
<path d="M1392 1770 c-93 -11 -149 -23 -159 -32 -12 -13 -11 -61 10 -394 14
-208 24 -380 23 -381 -1 -1 -67 143 -146 320 -80 177 -158 336 -174 354 -17
20 -37 33 -52 33 -24 0 -238 -124 -282 -163 -12 -11 -22 -27 -22 -35 0 -8 36
-125 80 -260 44 -135 79 -246 77 -247 -3 -3 -319 94 -324 98 -2 2 41 23 94 47
117 52 123 56 123 84 0 11 -29 86 -63 166 -85 195 -72 190 -263 110 -82 -35
-155 -67 -161 -73 -7 -5 -13 -21 -13 -36 -1 -32 189 -751 203 -768 12 -16 59
-17 75 -1 18 18 16 32 -33 214 -24 92 -43 169 -42 170 1 2 90 -24 197 -57 107
-33 206 -58 219 -57 23 3 27 -4 51 -79 30 -93 43 -113 76 -113 13 0 103 47
201 104 l178 103 10 -38 c6 -21 15 -43 21 -49 14 -14 332 6 352 22 16 14 15
63 -2 77 -11 9 -47 10 -143 3 -70 -5 -129 -9 -130 -8 -3 2 -51 771 -48 774 1
1 62 10 136 18 74 9 140 21 147 26 15 13 16 60 0 76 -15 15 -37 14 -216 -8z
m-367 -525 c76 -168 135 -308 132 -311 -3 -4 -59 -37 -124 -75 l-118 -68 -107
327 c-59 179 -105 328 -103 330 12 13 162 102 171 102 5 0 73 -137 149 -305z
m-541 75 c21 -50 37 -93 34 -95 -15 -15 -212 -95 -218 -88 -13 14 -53 183 -46
191 9 9 167 80 181 81 6 1 28 -40 49 -89z"/>
</g>
</svg>
