<?xml version="1.0" standalone="no"?>
<!DOCTYPE svg PUBLIC "-//W3C//DTD SVG 20010904//EN"
 "http://www.w3.org/TR/2001/REC-SVG-20010904/DTD/svg10.dtd">
<svg version="1.0" xmlns="http://www.w3.org/2000/svg"
 width="1000.000000pt" height="200.000000pt" viewBox="0 0 1000.000000 200.000000"
 preserveAspectRatio="xMidYMid meet">

<g transform="translate(0.000000,200.000000) scale(0.100000,-0.100000)"
fill="#000000" stroke="none">
<path d="M2179 1784 c-7 -9 -107 -201 -221 -428 l-207 -411 -1 182 c0 151 -3
184 -16 197 -20 20 -48 20 -68 0 -14 -13 -16 -62 -16 -383 0 -272 3 -370 12
-379 16 -16 63 -15 76 1 6 7 13 54 14 104 l3 91 170 -226 c94 -124 183 -241
199 -259 41 -48 96 -41 96 12 0 12 -87 136 -203 289 l-202 268 230 458 c228
454 229 458 211 479 -23 25 -58 27 -77 5z"/>
<path d="M3917 1693 c-16 -19 -16 -49 3 -654 20 -615 22 -635 42 -651 41 -35
95 -9 84 41 -3 14 -9 112 -12 217 l-7 192 78 53 c43 30 99 70 125 90 l46 37
54 321 c41 247 50 324 41 334 -8 10 -47 16 -129 21 -64 3 -160 9 -212 12 -86
6 -97 4 -113 -13z m322 -99 c30 -5 33 -8 28 -32 -3 -15 -22 -132 -43 -260
l-39 -233 -80 -55 -80 -55 -6 148 c-4 81 -9 227 -13 325 l-6 176 103 -4 c56
-3 117 -7 136 -10z"/>
<path d="M3300 1668 c-145 -7 -189 -13 -202 -25 -16 -15 -18 -41 -18 -268 0
-212 -2 -255 -15 -265 -8 -7 -15 -25 -15 -40 0 -15 7 -33 15 -40 13 -11 15
-58 15 -314 0 -323 1 -326 50 -326 50 0 50 2 50 340 l0 315 144 44 c80 24 152
51 160 60 13 15 146 453 146 484 0 7 -8 21 -18 30 -21 19 -25 19 -312 5z m210
-95 c0 -13 -100 -346 -104 -351 -3 -2 -53 -19 -113 -37 l-108 -33 -3 201 c-1
110 0 202 3 205 3 4 67 9 143 12 75 4 147 7 160 8 12 1 22 -1 22 -5z"/>
<path d="M5821 1459 c-144 -111 -267 -211 -273 -224 -8 -18 12 -75 121 -343
72 -176 131 -323 131 -326 0 -3 -50 -78 -110 -166 -61 -88 -113 -167 -117
-176 -7 -20 25 -54 52 -54 12 0 29 8 37 18 39 45 248 355 248 369 0 8 -56 152
-125 320 -69 168 -126 311 -127 318 -3 12 435 355 453 355 16 0 39 32 39 55 0
23 -32 55 -55 55 -6 0 -129 -90 -274 -201z"/>
<path d="M8917 1633 c-12 -15 -18 -78 -32 -338 l-16 -320 24 -21 c14 -12 87
-54 163 -94 77 -40 143 -76 148 -81 6 -5 16 -66 23 -135 l13 -127 -30 -96 -30
-96 -258 -33 c-141 -19 -266 -36 -277 -39 -16 -4 -18 -3 -7 8 6 7 12 22 12 32
0 11 -43 152 -96 314 -52 162 -94 298 -92 303 2 5 81 87 176 183 106 107 172
182 172 194 0 11 -10 29 -22 40 -42 38 -391 283 -403 283 -7 0 -22 -8 -34 -17
-19 -17 -24 -54 -65 -518 -25 -275 -50 -525 -56 -556 -12 -64 -7 -85 21 -94
27 -9 54 2 68 28 6 12 19 109 29 216 l17 194 94 -294 c52 -162 100 -301 107
-309 11 -14 -17 -19 -239 -49 -139 -18 -258 -37 -264 -43 -18 -14 -16 -63 2
-78 22 -18 1162 134 1187 158 9 9 33 70 53 135 l36 118 -16 162 c-14 146 -18
164 -39 183 -13 12 -86 54 -162 94 -77 40 -142 75 -146 79 -8 7 13 486 22 500
3 6 95 -17 228 -57 l222 -67 0 -45 c0 -53 13 -70 51 -70 44 0 52 20 44 112 -4
46 -12 89 -17 96 -6 6 -26 12 -45 12 -18 0 -143 34 -278 75 -134 41 -250 75
-258 75 -8 0 -21 -8 -30 -17z m-322 -287 c44 -32 80 -61 80 -66 0 -4 -68 -77
-150 -162 l-150 -153 22 230 c12 127 22 241 22 253 1 23 2 23 49 -11 26 -19
83 -60 127 -91z"/>
<path d="M400 1539 c-140 -55 -263 -108 -273 -118 -18 -18 -17 -32 48 -502 37
-266 72 -490 77 -496 14 -18 63 -16 78 2 11 13 8 51 -14 210 -16 107 -26 198
-24 203 1 5 71 -69 153 -165 230 -267 254 -293 279 -293 28 0 46 18 46 45 0
14 -75 109 -204 258 -113 130 -207 241 -211 246 -3 6 86 64 197 131 112 67
207 125 212 130 5 5 0 93 -14 212 -23 212 -31 239 -74 237 -12 -1 -136 -46
-276 -100z m254 -164 c10 -89 11 -123 2 -131 -12 -12 -381 -234 -389 -234 -7
0 -51 339 -45 346 17 16 413 160 415 150 2 -6 9 -65 17 -131z"/>
<path d="M1541 1603 c-16 -16 -82 -104 -145 -198 -112 -164 -116 -171 -117
-225 -3 -133 -3 -133 -129 83 -63 108 -121 211 -129 227 -27 56 -85 52 -100
-8 -6 -20 -45 -205 -87 -410 l-77 -373 139 -140 c112 -112 144 -139 163 -137
21 3 38 29 113 178 48 96 86 164 83 150 -2 -14 -6 -84 -10 -156 -5 -117 -4
-132 12 -147 11 -9 70 -25 140 -38 135 -25 153 -21 153 31 0 38 -12 45 -114
64 -49 9 -90 17 -92 19 -6 5 35 678 42 689 34 56 210 306 223 315 35 26 41 34
41 53 0 26 -27 50 -56 50 -13 0 -37 -12 -53 -27z m-421 -487 l103 -179 -94
-188 c-51 -104 -96 -189 -99 -189 -3 0 -42 37 -86 83 l-81 82 63 300 c35 165
63 302 64 305 0 8 25 -32 130 -214z"/>
<path d="M4590 1538 c-130 -21 -190 -34 -202 -46 -13 -14 -30 -127 -82 -546
-37 -291 -64 -536 -61 -546 3 -9 24 -25 48 -35 23 -9 103 -44 177 -77 169 -76
203 -86 224 -69 23 19 20 57 -7 78 -13 10 -94 50 -180 88 -152 68 -157 71
-156 100 0 61 46 387 55 393 34 25 154 176 154 195 0 57 -49 61 -103 10 l-40
-38 6 40 c3 22 14 106 23 186 l18 146 180 27 c99 15 186 32 193 38 16 13 17
60 1 76 -16 16 -32 15 -248 -20z"/>
<path d="M3716 1538 c-37 -58 -436 -978 -436 -1006 0 -34 22 -62 50 -62 23 0
50 26 50 48 0 24 123 302 131 296 4 -2 33 -49 64 -104 32 -55 69 -109 83 -120
l25 -20 -8 -165 c-5 -124 -4 -169 5 -180 15 -18 64 -20 78 -2 16 19 56 1306
41 1323 -18 22 -66 17 -83 -8z m-22 -558 l-7 -261 -54 92 c-30 51 -61 98 -68
104 -11 8 1 42 58 172 40 88 73 160 75 158 2 -2 0 -121 -4 -265z"/>
<path d="M7375 1493 c-107 -11 -144 -18 -158 -32 -17 -16 -17 -29 -6 -197 6
-98 15 -183 19 -188 5 -5 55 -33 112 -62 l103 -52 -4 -108 c-2 -59 -7 -119
-10 -133 -6 -19 -32 -40 -103 -81 -118 -69 -128 -77 -128 -105 0 -21 28 -55
45 -55 14 0 252 141 268 158 11 12 18 64 26 191 11 158 11 175 -5 192 -9 10
-61 41 -115 69 -111 57 -102 40 -113 216 l-5 82 97 7 c136 10 193 20 203 36
24 39 -5 80 -54 78 -18 -1 -95 -8 -172 -16z"/>
<path d="M7958 1406 c-87 -45 -166 -91 -178 -101 -19 -18 -20 -29 -20 -390 0
-316 2 -374 15 -385 22 -18 254 5 277 28 13 14 25 98 61 424 35 323 47 410 60
423 33 32 9 86 -36 84 -12 -1 -93 -38 -179 -83z m91 -88 c0 -7 -17 -164 -37
-348 l-37 -335 -58 -3 -57 -3 0 305 0 306 88 44 c96 50 102 52 101 34z"/>
<path d="M7024 1462 c-16 -10 -266 -373 -271 -392 -8 -29 37 -64 220 -175
l179 -107 -34 -37 c-295 -314 -310 -335 -276 -369 31 -31 55 -13 247 192 109
117 191 213 191 224 0 28 -20 42 -223 166 l-185 112 65 94 c36 52 87 125 114
163 27 37 49 76 49 86 0 37 -46 63 -76 43z"/>
<path d="M4900 1363 c-135 -41 -253 -82 -262 -91 -13 -13 -26 -98 -63 -395
-25 -209 -43 -387 -40 -397 12 -39 81 -36 90 3 3 12 14 88 24 170 10 81 20
149 22 152 3 2 38 -60 78 -138 89 -170 114 -207 145 -207 27 0 46 18 46 43 0
11 -38 93 -85 182 -47 90 -85 167 -85 171 0 5 105 45 233 88 127 43 238 85
246 92 12 11 10 39 -9 191 -23 186 -33 214 -74 212 -12 -1 -131 -35 -266 -76z
m230 -55 c1 -7 6 -56 13 -108 l13 -96 -236 -81 -235 -80 14 126 c8 69 15 127
17 129 3 5 387 121 402 121 6 1 12 -5 12 -11z"/>
<path d="M6441 1389 c-85 -21 -158 -45 -163 -51 -22 -36 5 -78 50 -78 15 0 52
7 82 15 30 8 56 13 58 11 2 -3 56 -467 75 -654 3 -30 0 -33 -34 -42 -40 -11
-55 -35 -44 -69 3 -11 15 -23 25 -26 23 -7 250 33 268 47 16 14 15 63 -2 77
-9 8 -31 10 -63 5 l-48 -6 -33 304 c-18 166 -36 324 -39 349 -5 46 -5 46 27
53 44 8 60 23 60 55 0 33 -17 51 -44 50 -12 -1 -90 -19 -175 -40z"/>
<path d="M6098 1187 c-7 -8 -53 -73 -102 -144 l-89 -131 28 -179 c15 -98 33
-183 39 -189 12 -11 393 -114 424 -114 10 0 23 5 30 12 16 16 15 63 0 75 -7 6
-85 29 -173 51 -88 23 -169 45 -181 48 -18 5 -23 20 -38 122 -9 64 -19 124
-22 133 -2 8 34 69 81 138 47 67 85 131 85 141 0 41 -54 65 -82 37z"/>
<path d="M2565 608 c-63 -36 -37 -105 36 -95 42 5 50 -1 67 -50 9 -28 8 -33
-14 -48 -26 -17 -33 -62 -12 -83 20 -20 74 -14 104 11 22 19 28 34 32 80 5 67
-12 110 -64 162 -30 30 -41 35 -82 35 -26 0 -56 -6 -67 -12z"/>
<path d="M5436 524 c-9 -8 -16 -25 -16 -37 0 -11 -16 -35 -35 -53 -53 -48 -44
-104 16 -104 20 0 42 14 78 51 45 45 51 57 51 93 0 23 -5 47 -12 54 -17 17
-64 15 -82 -4z"/>
</g>
</svg>
