<?xml version="1.0" standalone="no"?>
<!DOCTYPE svg PUBLIC "-//W3C//DTD SVG 20010904//EN"
 "http://www.w3.org/TR/2001/REC-SVG-20010904/DTD/svg10.dtd">
<svg version="1.0" xmlns="http://www.w3.org/2000/svg"
 width="250.000000pt" height="250.000000pt" viewBox="0 0 250.000000 250.000000"
 preserveAspectRatio="xMidYMid meet">

<g transform="translate(0.000000,250.000000) scale(0.100000,-0.100000)"
fill="#000000" stroke="none">
<path d="M413 2171 c-106 -25 -198 -51 -204 -58 -8 -8 -13 -81 -17 -220 -4
-184 -3 -210 12 -222 25 -21 69 -9 232 61 l152 65 -4 -101 c-6 -131 -14 -226
-20 -226 -30 0 -352 -64 -361 -72 -18 -14 -16 -63 2 -78 21 -17 422 53 447 78
14 14 18 56 28 256 11 232 10 240 -9 259 -23 23 -12 26 -228 -66 l-153 -65 0
128 0 128 153 36 c83 20 160 36 169 36 43 0 63 63 30 93 -23 21 0 24 -229 -32z"/>
<path d="M1782 2196 c-118 -10 -146 -15 -161 -32 -24 -25 -131 -268 -131 -297
0 -30 18 -47 49 -47 15 0 151 21 303 47 153 25 280 44 283 41 7 -7 -43 -138
-59 -155 -6 -6 -126 -62 -266 -124 -140 -61 -261 -116 -267 -121 -16 -13 -17
-60 -1 -76 7 -7 20 -12 29 -12 25 0 561 238 581 258 22 23 118 268 118 302 0
58 -6 58 -333 2 -165 -28 -302 -50 -303 -49 -1 1 13 36 31 77 l34 75 58 6 c32
4 102 10 156 14 101 7 127 18 127 55 0 30 -28 50 -68 49 -20 -1 -101 -7 -180
-13z"/>
<path d="M1305 2184 c-14 -14 -15 -49 -10 -302 8 -434 11 -452 59 -452 42 0
46 16 46 170 0 306 -12 571 -27 586 -19 19 -48 18 -68 -2z"/>
<path d="M887 2145 c-70 -13 -126 -29 -135 -39 -14 -13 -17 -66 -24 -377 -6
-267 -5 -365 3 -375 6 -8 24 -14 39 -14 29 0 345 114 367 132 16 13 17 60 1
76 -19 19 -33 15 -177 -38 -74 -28 -136 -49 -138 -47 -1 2 0 132 5 288 l7 284
120 19 c66 10 127 22 135 26 19 9 25 57 9 76 -16 19 -69 16 -212 -11z"/>
<path d="M1610 1283 c-163 -35 -210 -49 -228 -67 -21 -21 -30 -64 -89 -425
-53 -324 -63 -404 -53 -416 15 -18 64 -20 78 -2 5 6 25 102 43 213 l33 200 81
-95 c81 -96 111 -115 141 -91 28 24 14 57 -67 155 -54 64 -77 100 -70 105 7 4
62 12 124 19 62 7 118 18 125 25 15 14 142 352 142 376 0 18 -31 51 -46 49 -5
-1 -101 -21 -214 -46z m90 -183 c-22 -57 -43 -107 -47 -110 -9 -8 -222 -34
-227 -29 -2 2 3 45 11 95 l15 90 142 30 c77 17 142 30 143 29 2 -1 -15 -48
-37 -105z"/>
<path d="M2110 1266 c-74 -11 -140 -24 -147 -29 -14 -9 -163 -465 -163 -499 0
-37 22 -50 168 -104 73 -27 131 -54 130 -60 -2 -6 -34 -64 -72 -130 l-69 -120
-243 -48 c-133 -27 -247 -53 -253 -59 -16 -16 -13 -63 4 -77 21 -18 536 84
560 110 32 35 205 344 205 365 0 13 -6 27 -12 32 -7 5 -78 33 -158 62 -80 30
-146 55 -148 56 -2 2 25 90 59 197 l63 195 130 17 c72 10 137 23 144 28 15 13
16 60 0 76 -15 15 -35 14 -198 -12z"/>
<path d="M1012 1216 c-178 -19 -217 -26 -232 -42 -10 -10 -44 -78 -75 -150
l-57 -131 -181 -47 c-100 -25 -186 -46 -190 -46 -4 0 -7 37 -5 82 l3 81 155
56 c86 31 161 60 168 64 15 10 16 59 0 75 -7 7 -20 12 -29 12 -26 0 -362 -121
-378 -136 -10 -9 -15 -52 -19 -164 -4 -135 -3 -152 13 -170 10 -11 25 -20 34
-20 9 1 97 22 197 48 l181 48 -23 -51 c-13 -27 -24 -55 -24 -61 0 -25 38 -42
109 -47 40 -3 75 -7 76 -9 9 -10 -22 -142 -35 -149 -8 -4 -159 -20 -335 -34
-176 -15 -326 -31 -332 -37 -17 -14 -16 -63 1 -77 19 -16 734 44 754 63 7 7
19 52 27 102 9 49 17 98 20 109 4 19 8 20 176 11 115 -6 177 -6 188 1 12 7 28
77 62 267 31 171 52 262 63 274 20 23 21 66 1 82 -25 21 -89 20 -313 -4z m192
-103 c-2 -10 -20 -108 -39 -217 -19 -110 -37 -201 -39 -203 -2 -3 -65 -1 -138
2 l-135 8 13 71 c26 141 15 174 -51 162 -19 -4 -35 -5 -35 -2 0 19 71 162 82
164 28 5 265 30 305 31 34 1 40 -2 37 -16z m-439 -345 c-4 -29 -9 -54 -10 -56
-2 -2 -19 -2 -38 0 l-36 3 21 47 c18 41 30 52 61 57 5 0 6 -23 2 -51z"/>
</g>
</svg>
